M48
; DRILL file {KiCad (6.0.4-0)} date 2024 February 18, Sunday 21:24:58
; FORMAT={-:-/ absolute / metric / decimal}
; #@! TF.CreationDate,2024-02-18T21:24:58+01:00
; #@! TF.GenerationSoftware,Kicad,Pcbnew,(6.0.4-0)
; #@! TF.FileFunction,MixedPlating,1,2
FMAT,2
METRIC
; #@! TA.AperFunction,Plated,PTH,ComponentDrill
T1C0.600
; #@! TA.AperFunction,Plated,PTH,ComponentDrill
T2C0.800
; #@! TA.AperFunction,Plated,PTH,ComponentDrill
T3C1.000
; #@! TA.AperFunction,NonPlated,NPTH,ComponentDrill
T4C5.000
%
G90
G05
T2
X19.298Y-115.584
X21.62Y-96.676
X23.941Y-77.768
X26.263Y-58.86
X26.861Y-116.513
X29.183Y-97.605
X31.505Y-78.697
X33.826Y-59.789
X38.206Y-117.906
X40.528Y-98.998
X42.849Y-80.09
X45.171Y-61.182
X45.769Y-118.835
X48.091Y-99.927
X50.413Y-81.019
X52.734Y-62.111
X57.114Y-120.228
X59.436Y-101.32
X61.757Y-82.412
X64.079Y-63.504
X64.677Y-121.156
X66.999Y-102.248
X69.321Y-83.34
X71.642Y-64.432
X72.39Y-41.91
X74.93Y-41.91
X76.332Y-120.028
X77.47Y-41.91
X78.653Y-101.12
X80.01Y-41.91
X80.975Y-82.212
X82.55Y-41.91
X83.296Y-63.304
X83.895Y-120.957
X85.09Y-41.91
X86.216Y-102.049
X87.525Y-42.015
X88.538Y-83.141
X90.86Y-64.233
X95.859Y-117.308
X98.18Y-98.4
X100.502Y-79.492
X102.824Y-60.584
X103.422Y-118.236
X105.744Y-99.328
X108.065Y-80.42
X110.387Y-61.512
X114.148Y-124.671
X116.469Y-105.763
X118.791Y-86.855
X120.584Y-46.12
X121.113Y-67.947
X121.512Y-38.557
X121.711Y-125.6
X123.105Y-46.43
X124.032Y-106.692
X124.033Y-38.867
X125.626Y-46.739
X126.354Y-87.784
X126.554Y-39.176
X128.147Y-47.049
X128.676Y-68.876
X129.075Y-39.486
X130.668Y-47.359
X131.597Y-39.795
X133.056Y-126.993
X133.189Y-47.668
X134.118Y-40.105
X135.377Y-108.085
X135.71Y-47.978
X136.639Y-40.414
X137.699Y-89.177
X138.231Y-48.287
X139.16Y-40.724
X140.021Y-70.269
X140.619Y-127.922
X142.94Y-109.014
X145.262Y-90.106
X147.584Y-71.198
X154.94Y-80.01
X154.94Y-85.09
X156.205Y-44.445
X156.205Y-46.985
X156.205Y-49.525
X156.205Y-52.065
X156.205Y-54.605
X156.205Y-57.145
X156.205Y-59.685
X156.205Y-62.225
X156.205Y-64.765
X156.205Y-67.305
X156.205Y-69.845
X156.205Y-72.385
X160.655Y-107.95
X160.655Y-128.27
X162.56Y-80.01
X162.56Y-85.09
X165.1Y-80.01
X165.1Y-85.09
X168.275Y-107.95
X168.275Y-128.27
X171.445Y-44.445
X171.445Y-46.985
X171.445Y-49.525
X171.445Y-52.065
X171.445Y-54.605
X171.445Y-57.145
X171.445Y-59.685
X171.445Y-62.225
X171.445Y-64.765
X171.445Y-67.305
X171.445Y-69.845
X171.445Y-72.385
X172.72Y-80.01
X172.72Y-85.09
X181.35Y-71.042
X183.672Y-89.95
X185.993Y-108.858
X188.315Y-127.766
X188.494Y-40.726
X188.913Y-70.113
X189.422Y-48.289
X191.015Y-40.416
X191.235Y-89.022
X191.943Y-47.979
X193.536Y-40.106
X193.556Y-107.93
X194.464Y-47.67
X195.878Y-126.838
X196.057Y-39.797
X196.986Y-47.36
X198.578Y-39.487
X199.507Y-47.051
X200.258Y-68.721
X201.099Y-39.178
X202.028Y-46.741
X202.58Y-87.629
X203.62Y-38.868
X204.549Y-46.431
X204.901Y-106.537
X206.141Y-38.559
X207.07Y-46.122
X207.223Y-125.445
X207.821Y-67.792
X210.143Y-86.7
X212.465Y-105.608
X214.786Y-124.516
X218.547Y-61.357
X220.869Y-80.265
X223.19Y-99.173
X225.512Y-118.081
X226.11Y-60.428
X228.432Y-79.336
X230.753Y-98.244
X233.075Y-117.152
X238.074Y-64.077
X240.135Y-41.805
X240.396Y-82.985
X242.675Y-41.805
X242.717Y-101.893
X245.039Y-120.801
X245.215Y-41.805
X245.637Y-63.149
X247.755Y-41.805
X247.959Y-82.057
X250.281Y-100.965
X250.295Y-41.805
X252.602Y-119.873
X252.835Y-41.805
X255.27Y-41.91
X257.292Y-64.277
X259.613Y-83.185
X261.935Y-102.093
X264.256Y-121.001
X264.855Y-63.348
X267.176Y-82.256
X269.498Y-101.164
X271.82Y-120.072
X276.2Y-61.955
X278.521Y-80.863
X280.843Y-99.771
X283.164Y-118.679
X283.763Y-61.027
X286.084Y-79.935
X288.406Y-98.843
X290.728Y-117.751
X295.108Y-59.634
X297.429Y-78.542
X299.751Y-97.45
X302.072Y-116.358
X302.671Y-58.705
X304.992Y-77.613
X307.314Y-96.521
X309.636Y-115.429
T3
X146.05Y-46.355
X151.13Y-46.355
T4
X23.533Y-107.148
X25.854Y-88.24
X28.176Y-69.332
X30.498Y-50.424
X42.441Y-109.469
X44.762Y-90.561
X47.084Y-71.653
X49.406Y-52.745
X61.349Y-111.791
X63.67Y-92.883
X65.992Y-73.975
X68.314Y-55.067
X80.566Y-111.591
X82.888Y-92.683
X85.21Y-73.775
X87.531Y-54.867
X100.094Y-108.871
X102.415Y-89.963
X104.737Y-71.055
X107.058Y-52.147
X118.382Y-116.235
X120.704Y-97.327
X123.026Y-78.419
X125.347Y-59.511
X137.29Y-118.556
X139.612Y-99.648
X141.934Y-80.74
X144.255Y-61.832
X163.83Y-99.06
X163.83Y-119.38
X183.418Y-61.831
X185.74Y-80.739
X188.061Y-99.647
X190.383Y-118.555
X202.326Y-59.51
X204.648Y-78.418
X206.969Y-97.326
X209.291Y-116.234
X220.615Y-52.146
X222.937Y-71.054
X225.258Y-89.962
X227.58Y-108.87
X240.142Y-54.867
X242.464Y-73.775
X244.785Y-92.683
X247.107Y-111.591
X259.36Y-55.066
X261.681Y-73.974
X264.003Y-92.882
X266.324Y-111.79
X278.268Y-52.744
X280.589Y-71.652
X282.911Y-90.56
X285.232Y-109.468
X297.176Y-50.423
X299.497Y-69.331
X301.819Y-88.239
X304.14Y-107.147
T1
G00X18.556Y-111.574
M15
G01X18.629Y-110.979
M16
G05
G00X20.878Y-92.666
M15
G01X20.951Y-92.071
M16
G05
G00X23.2Y-73.758
M15
G01X23.273Y-73.163
M16
G05
G00X25.115Y-113.135
M15
G01X25.71Y-113.208
M16
G05
G00X25.521Y-54.85
M15
G01X25.594Y-54.255
M16
G05
G00X27.437Y-94.227
M15
G01X28.032Y-94.3
M16
G05
G00X29.758Y-75.319
M15
G01X30.354Y-75.392
M16
G05
G00X32.08Y-56.411
M15
G01X32.675Y-56.484
M16
G05
G00X37.464Y-113.896
M15
G01X37.537Y-113.3
M16
G05
G00X39.786Y-94.988
M15
G01X39.859Y-94.392
M16
G05
G00X42.108Y-76.08
M15
G01X42.181Y-75.484
M16
G05
G00X44.023Y-115.457
M15
G01X44.618Y-115.53
M16
G05
G00X44.429Y-57.172
M15
G01X44.502Y-56.576
M16
G05
G00X46.345Y-96.549
M15
G01X46.94Y-96.622
M16
G05
G00X48.666Y-77.641
M15
G01X49.262Y-77.714
M16
G05
G00X50.988Y-58.733
M15
G01X51.583Y-58.806
M16
G05
G00X56.372Y-116.217
M15
G01X56.445Y-115.622
M16
G05
G00X58.694Y-97.309
M15
G01X58.767Y-96.714
M16
G05
G00X61.016Y-78.401
M15
G01X61.089Y-77.806
M16
G05
G00X62.931Y-117.778
M15
G01X63.527Y-117.851
M16
G05
G00X63.337Y-59.493
M15
G01X63.41Y-58.898
M16
G05
G00X65.253Y-98.87
M15
G01X65.848Y-98.943
M16
G05
G00X67.574Y-79.962
M15
G01X68.17Y-80.035
M16
G05
G00X69.896Y-61.054
M15
G01X70.491Y-61.127
M16
G05
G00X75.59Y-116.018
M15
G01X75.663Y-115.422
M16
G05
G00X77.911Y-97.11
M15
G01X77.985Y-96.514
M16
G05
G00X80.233Y-78.202
M15
G01X80.306Y-77.606
M16
G05
G00X82.149Y-117.579
M15
G01X82.744Y-117.652
M16
G05
G00X82.555Y-59.294
M15
G01X82.628Y-58.698
M16
G05
G00X84.47Y-98.671
M15
G01X85.066Y-98.744
M16
G05
G00X86.792Y-79.763
M15
G01X87.387Y-79.836
M16
G05
G00X89.113Y-60.855
M15
G01X89.709Y-60.928
M16
G05
G00X95.117Y-113.297
M15
G01X95.19Y-112.702
M16
G05
G00X97.439Y-94.389
M15
G01X97.512Y-93.794
M16
G05
G00X99.76Y-75.481
M15
G01X99.833Y-74.886
M16
G05
G00X101.676Y-114.858
M15
G01X102.271Y-114.931
M16
G05
G00X102.082Y-56.573
M15
G01X102.155Y-55.978
M16
G05
G00X103.997Y-95.95
M15
G01X104.593Y-96.023
M16
G05
G00X106.319Y-77.042
M15
G01X106.914Y-77.115
M16
G05
G00X108.64Y-58.134
M15
G01X109.236Y-58.207
M16
G05
G00X113.406Y-120.661
M15
G01X113.479Y-120.066
M16
G05
G00X115.727Y-101.753
M15
G01X115.801Y-101.158
M16
G05
G00X118.049Y-82.845
M15
G01X118.122Y-82.25
M16
G05
G00X119.965Y-122.222
M15
G01X120.56Y-122.295
M16
G05
G00X120.371Y-63.937
M15
G01X120.444Y-63.342
M16
G05
G00X122.286Y-103.314
M15
G01X122.882Y-103.387
M16
G05
G00X124.608Y-84.406
M15
G01X125.203Y-84.479
M16
G05
G00X126.929Y-65.498
M15
G01X127.525Y-65.571
M16
G05
G00X132.314Y-122.983
M15
G01X132.387Y-122.387
M16
G05
G00X134.635Y-104.075
M15
G01X134.709Y-103.479
M16
G05
G00X136.957Y-85.167
M15
G01X137.03Y-84.571
M16
G05
G00X138.873Y-124.544
M15
G01X139.468Y-124.617
M16
G05
G00X139.279Y-66.259
M15
G01X139.352Y-65.663
M16
G05
G00X141.194Y-105.636
M15
G01X141.79Y-105.709
M16
G05
G00X143.516Y-86.728
M15
G01X144.111Y-86.801
M16
G05
G00X145.837Y-67.82
M15
G01X146.433Y-67.893
M16
G05
G00X159.43Y-104.06
M15
G01X159.43Y-103.46
M16
G05
G00X159.43Y-124.38
M15
G01X159.43Y-123.78
M16
G05
G00X166.13Y-104.81
M15
G01X166.73Y-104.81
M16
G05
G00X166.13Y-125.13
M15
G01X166.73Y-125.13
M16
G05
G00X179.66Y-67.33
M15
G01X179.587Y-66.735
M16
G05
G00X181.982Y-86.238
M15
G01X181.909Y-85.643
M16
G05
G00X184.303Y-105.146
M15
G01X184.23Y-104.551
M16
G05
G00X186.625Y-124.054
M15
G01X186.552Y-123.459
M16
G05
G00X186.402Y-67.258
M15
G01X186.997Y-67.185
M16
G05
G00X188.723Y-86.166
M15
G01X189.319Y-86.093
M16
G05
G00X191.045Y-105.074
M15
G01X191.64Y-105.001
M16
G05
G00X193.366Y-123.982
M15
G01X193.962Y-123.909
M16
G05
G00X198.568Y-65.009
M15
G01X198.495Y-64.413
M16
G05
G00X200.89Y-83.917
M15
G01X200.817Y-83.321
M16
G05
G00X203.211Y-102.825
M15
G01X203.138Y-102.229
M16
G05
G00X205.533Y-121.733
M15
G01X205.46Y-121.137
M16
G05
G00X205.31Y-64.937
M15
G01X205.905Y-64.864
M16
G05
G00X207.631Y-83.845
M15
G01X208.227Y-83.772
M16
G05
G00X209.953Y-102.753
M15
G01X210.548Y-102.68
M16
G05
G00X212.274Y-121.661
M15
G01X212.87Y-121.588
M16
G05
G00X216.857Y-57.645
M15
G01X216.784Y-57.05
M16
G05
G00X219.179Y-76.553
M15
G01X219.106Y-75.958
M16
G05
G00X221.5Y-95.461
M15
G01X221.427Y-94.866
M16
G05
G00X223.822Y-114.369
M15
G01X223.749Y-113.774
M16
G05
G00X223.599Y-57.573
M15
G01X224.194Y-57.5
M16
G05
G00X225.92Y-76.481
M15
G01X226.516Y-76.408
M16
G05
G00X228.242Y-95.389
M15
G01X228.837Y-95.316
M16
G05
G00X230.563Y-114.297
M15
G01X231.159Y-114.224
M16
G05
G00X236.384Y-60.366
M15
G01X236.311Y-59.77
M16
G05
G00X238.706Y-79.274
M15
G01X238.633Y-78.678
M16
G05
G00X241.027Y-98.182
M15
G01X240.954Y-97.586
M16
G05
G00X243.349Y-117.09
M15
G01X243.276Y-116.494
M16
G05
G00X243.126Y-60.293
M15
G01X243.721Y-60.22
M16
G05
G00X245.447Y-79.201
M15
G01X246.043Y-79.128
M16
G05
G00X247.769Y-98.109
M15
G01X248.364Y-98.036
M16
G05
G00X250.09Y-117.017
M15
G01X250.686Y-116.944
M16
G05
G00X255.602Y-60.565
M15
G01X255.529Y-59.97
M16
G05
G00X257.923Y-79.473
M15
G01X257.85Y-78.878
M16
G05
G00X260.245Y-98.381
M15
G01X260.172Y-97.786
M16
G05
G00X262.567Y-117.289
M15
G01X262.493Y-116.694
M16
G05
G00X262.343Y-60.493
M15
G01X262.939Y-60.42
M16
G05
G00X264.665Y-79.401
M15
G01X265.26Y-79.328
M16
G05
G00X266.986Y-98.309
M15
G01X267.582Y-98.236
M16
G05
G00X269.308Y-117.217
M15
G01X269.904Y-117.144
M16
G05
G00X274.51Y-58.243
M15
G01X274.437Y-57.648
M16
G05
G00X276.831Y-77.151
M15
G01X276.758Y-76.556
M16
G05
G00X279.153Y-96.059
M15
G01X279.08Y-95.464
M16
G05
G00X281.475Y-114.967
M15
G01X281.401Y-114.372
M16
G05
G00X281.251Y-58.171
M15
G01X281.847Y-58.098
M16
G05
G00X283.573Y-77.079
M15
G01X284.168Y-77.006
M16
G05
G00X285.894Y-95.987
M15
G01X286.49Y-95.914
M16
G05
G00X288.216Y-114.895
M15
G01X288.812Y-114.822
M16
G05
G00X293.418Y-55.922
M15
G01X293.345Y-55.326
M16
G05
G00X295.739Y-74.83
M15
G01X295.666Y-74.234
M16
G05
G00X298.061Y-93.738
M15
G01X297.988Y-93.142
M16
G05
G00X300.383Y-112.646
M15
G01X300.309Y-112.05
M16
G05
G00X300.159Y-55.85
M15
G01X300.755Y-55.777
M16
G05
G00X302.481Y-74.758
M15
G01X303.076Y-74.685
M16
G05
G00X304.802Y-93.666
M15
G01X305.398Y-93.593
M16
G05
G00X307.124Y-112.574
M15
G01X307.72Y-112.501
M16
G05
T0
M30
